<svg xmlns="http://www.w3.org/2000/svg" width="104" height="30" viewBox="0 0 104 30" fill="none">
  <rect width="104" height="30" rx="4" fill="black" />
  <path
    d="M71.1626 13.2781V21.2139C71.1626 22.37 71.6958 22.9497 72.7622 22.953C72.9615 22.9521 73.1603 22.9345 73.3566 22.9004C73.5382 22.8722 73.7165 22.8255 73.8886 22.761L73.7076 21.6603C73.5762 21.699 73.4408 21.7219 73.304 21.7288C73.2182 21.7364 73.1317 21.7245 73.0512 21.6937C72.9707 21.663 72.8982 21.6143 72.8393 21.5514C72.7423 21.43 72.6938 21.2261 72.6938 20.94V13.1558L71.1626 13.2781Z"
    fill="white" />
  <path
    d="M55.6922 20.82C56.0325 21.4877 56.566 22.0375 57.2233 22.3976C57.9475 22.7751 58.7562 22.9612 59.5726 22.9381C60.1414 22.9375 60.7083 22.8731 61.2628 22.7461C61.8212 22.6199 62.3644 22.4341 62.8832 22.1921V18.4009H59.306V19.6007H61.3851V21.429C61.1123 21.5274 60.8311 21.6002 60.5449 21.6467C60.2487 21.6965 59.9488 21.7214 59.6485 21.7213C58.9889 21.7205 58.4426 21.5753 58.0097 21.2859C57.5786 20.9984 57.2461 20.5857 57.057 20.1033C56.8477 19.5572 56.7455 18.9759 56.7561 18.3911C56.7378 17.7426 56.8718 17.0988 57.1475 16.5114C57.3873 16.0166 57.7709 15.6057 58.2482 15.3325C58.7521 15.0566 59.3199 14.9183 59.8943 14.9314C60.7081 14.9484 61.5076 15.1482 62.2338 15.5159L62.6264 14.3333C62.2062 14.1292 61.7649 13.9717 61.3105 13.8637C60.8241 13.7481 60.3257 13.6906 59.8258 13.6925C59.0017 13.68 58.1862 13.8623 57.4459 14.2245C56.7415 14.5761 56.1577 15.1296 55.7692 15.8143C55.3615 16.5212 55.1577 17.381 55.1577 18.3936C55.1577 19.3263 55.3359 20.1351 55.6922 20.82Z"
    fill="white" />
  <path fill-rule="evenodd" clip-rule="evenodd"
    d="M34.2849 20.4092H37.8938L38.7964 22.8246H40.4608L36.8457 13.8076H35.3452L31.812 22.8246H33.4019L34.2849 20.4092ZM37.4303 19.1862H34.7398L35.6949 16.5911C35.8311 16.1932 35.9575 15.8035 36.0741 15.4219C36.2029 15.8541 36.3333 16.2478 36.4654 16.6033L37.4303 19.1862Z"
    fill="white" />
  <path fill-rule="evenodd" clip-rule="evenodd"
    d="M41.1313 16.1089C41.164 16.7074 41.1803 17.2553 41.1803 17.7526L41.1852 25.6248L42.7224 25.494V22.7252C43.1547 22.877 43.6095 22.9552 44.0677 22.9563C44.6526 22.9679 45.2295 22.819 45.7358 22.5258C46.2285 22.2271 46.6198 21.7869 46.8585 21.2625C47.1423 20.6316 47.2798 19.9447 47.2609 19.2532C47.2609 18.5039 47.1435 17.8847 46.9087 17.3955C46.7283 16.9717 46.4256 16.6113 46.0394 16.3603C45.6532 16.1094 45.2009 15.9793 44.7403 15.9866C43.9682 15.9866 43.2838 16.3127 42.687 16.965C42.666 16.6777 42.6284 16.3919 42.5745 16.1089H41.1313ZM45.6918 19.3388C45.6918 20.1484 45.5353 20.7635 45.2222 21.1842C44.9099 21.6049 44.4546 21.8153 43.8561 21.8153C43.6534 21.8153 43.4513 21.7936 43.2532 21.7505C43.0682 21.7131 42.8883 21.6535 42.7175 21.5731V17.9764C42.9289 17.7532 43.172 17.5624 43.4391 17.4102C43.6922 17.2694 43.9774 17.1965 44.267 17.1986C44.4679 17.1927 44.6672 17.2359 44.8477 17.3243C45.0282 17.4127 45.1844 17.5438 45.3029 17.7061C45.5622 18.0437 45.6918 18.5879 45.6918 19.3388Z"
    fill="white" />
  <path fill-rule="evenodd" clip-rule="evenodd"
    d="M48.2415 17.7531C48.2415 17.2558 48.2248 16.7079 48.1914 16.1094H49.6357C49.6899 16.3923 49.7271 16.6782 49.747 16.9655C50.3455 16.3133 51.0299 15.9871 51.8004 15.9871C52.2611 15.9795 52.7137 16.1095 53.1001 16.3605C53.4866 16.6114 53.7895 16.972 53.9699 17.396C54.2031 17.8852 54.3201 18.5044 54.3209 19.2537C54.3402 19.9451 54.2031 20.632 53.9198 21.263C53.6806 21.7875 53.2889 22.2277 52.7959 22.5263C52.2901 22.8196 51.7135 22.9685 51.129 22.9568C50.6708 22.9557 50.216 22.8775 49.7837 22.7257V25.4945L48.2415 25.6302V17.7531ZM52.2834 21.1847C52.5965 20.764 52.7531 20.1489 52.7531 19.3393C52.7531 18.5884 52.6234 18.0442 52.3642 17.7066C52.2457 17.5443 52.0895 17.4132 51.909 17.3248C51.7285 17.2364 51.5292 17.1932 51.3283 17.1991C51.0387 17.1969 50.7534 17.2698 50.5004 17.4107C50.2331 17.5626 49.9899 17.7534 49.7788 17.9769V21.5736C49.9493 21.6539 50.1287 21.7134 50.3133 21.751C50.5117 21.7941 50.7143 21.8158 50.9174 21.8158C51.5175 21.8158 51.9736 21.6054 52.2859 21.1847H52.2834Z"
    fill="white" />
  <path fill-rule="evenodd" clip-rule="evenodd"
    d="M68.4202 22.8243C68.3624 22.5307 68.3272 22.2331 68.315 21.934C68.0574 22.2325 67.7432 22.4769 67.3905 22.6531C66.9923 22.8542 66.5512 22.9554 66.1051 22.9479C65.7412 22.9524 65.381 22.8751 65.0509 22.7216C64.7368 22.5732 64.4737 22.3348 64.2952 22.0368C64.1003 21.6977 64.0041 21.311 64.0175 20.9202C64.0061 20.6236 64.0636 20.3284 64.1857 20.0578C64.3077 19.7872 64.4909 19.5487 64.7207 19.3609C65.1896 18.9736 65.9714 18.7796 67.0664 18.7788C67.4756 18.7784 67.8844 18.8078 68.2894 18.8668V18.736C68.2894 18.1424 68.163 17.7242 67.9102 17.4812C67.6575 17.2382 67.2943 17.1159 66.8206 17.1143C66.4654 17.1181 66.1121 17.1662 65.7688 17.2574C65.4327 17.3405 65.1051 17.4552 64.7905 17.5998L64.5459 16.4796C64.8951 16.3307 65.258 16.2161 65.6294 16.1372C66.0948 16.0314 66.5708 15.9793 67.048 15.9818C67.5542 15.9681 68.0577 16.058 68.5278 16.246C68.9415 16.4287 69.2784 16.7501 69.4805 17.1547C69.7088 17.5835 69.8229 18.1612 69.8229 18.8876V21.5574C69.8229 21.835 69.8389 22.2557 69.8731 22.8207L68.4202 22.8243ZM67.503 21.5806C67.7997 21.4438 68.0662 21.2492 68.2869 21.0082V19.762C67.9463 19.7216 67.6038 19.6987 67.2608 19.6935C66.6265 19.6935 66.1879 19.7963 65.9449 20.0017C65.8244 20.1029 65.7286 20.2304 65.665 20.3743C65.6014 20.5183 65.5717 20.6749 65.578 20.8321C65.578 21.1648 65.6661 21.4094 65.8422 21.5659C66.0419 21.7362 66.2992 21.8237 66.5613 21.8105C66.8885 21.806 67.2105 21.7274 67.503 21.5806Z"
    fill="white" />
  <path
    d="M74.9902 21.2139V13.2781L76.5202 13.1558V20.94C76.5202 21.2261 76.5691 21.43 76.6669 21.5514C76.7255 21.6144 76.7978 21.6631 76.8781 21.6938C76.9585 21.7246 77.0448 21.7365 77.1304 21.7288C77.2676 21.7219 77.4035 21.6989 77.5352 21.6603L77.715 22.761C77.543 22.8257 77.3647 22.8724 77.183 22.9004C76.9867 22.9345 76.7879 22.9521 76.5887 22.953C75.5222 22.9497 74.9894 22.37 74.9902 21.2139Z"
    fill="white" />
  <path fill-rule="evenodd" clip-rule="evenodd"
    d="M79.6935 19.6629H84.0876V19.2569C84.0972 18.6943 83.9941 18.1354 83.7843 17.6133C83.5911 17.1348 83.2626 16.723 82.839 16.4282C82.4134 16.1314 81.8834 15.983 81.2491 15.983C80.6822 15.9717 80.1233 16.1182 79.6348 16.4062C79.1589 16.6981 78.7791 17.1233 78.5427 17.6292C78.2676 18.2297 78.1337 18.8852 78.1514 19.5455C78.132 20.177 78.2575 20.8046 78.5183 21.38C78.7536 21.8742 79.1387 22.2816 79.6189 22.5443C80.1089 22.8133 80.7106 22.9478 81.424 22.9478C82.299 22.9616 83.1654 22.7746 83.9568 22.4012L83.6205 21.3494C83.3136 21.4793 82.9961 21.5824 82.6714 21.6576C82.3544 21.7323 82.0298 21.7709 81.7041 21.7726C80.4346 21.7726 79.7645 21.0694 79.6935 19.6629ZM82.1835 17.4799C82.4232 17.7478 82.5589 18.1489 82.5871 18.6846H79.7327C79.8117 18.153 79.9809 17.7527 80.2402 17.4836C80.3654 17.3508 80.5173 17.2461 80.686 17.1763C80.8546 17.1066 81.0361 17.0733 81.2186 17.0788C81.3989 17.0713 81.5787 17.1033 81.7454 17.1726C81.9121 17.2418 82.0616 17.3468 82.1835 17.4799Z"
    fill="white" />
  <path
    d="M85.3253 17.7958C85.3253 17.4264 85.309 16.8643 85.2764 16.1093H86.7134C86.739 16.2964 86.7623 16.519 86.7855 16.7783C86.8087 17.0375 86.8234 17.2491 86.832 17.4105C86.9863 17.1485 87.1622 16.8998 87.3579 16.667C87.527 16.4682 87.7314 16.3024 87.9608 16.1778C88.2027 16.0481 88.4739 15.9829 88.7484 15.9882C88.9547 15.9841 89.1606 16.0092 89.3599 16.0628L89.1666 17.3946C89.0051 17.3469 88.8373 17.3238 88.6689 17.3262C88.3324 17.3188 88.0019 17.4153 87.7223 17.6025C87.3861 17.8568 87.094 18.1646 86.8577 18.5137V22.8271H85.3253V17.7958Z"
    fill="white" />
  <path
    d="M89.7271 25.4382C89.9077 25.4964 90.0925 25.5409 90.2798 25.5715C90.5178 25.6117 90.7588 25.6313 91.0002 25.6302C91.4599 25.6432 91.9159 25.545 92.3295 25.344C92.7158 25.1355 93.044 24.8342 93.2847 24.4671C93.5996 23.982 93.8527 23.4594 94.038 22.9115L96.5072 16.1094H94.9589L93.6968 19.9287C93.5386 20.4106 93.4017 20.8961 93.2859 21.3853C93.1866 20.8818 93.0555 20.385 92.8933 19.8981L91.6496 16.1143H89.9998L92.4763 22.8846L92.3772 23.1292C92.0364 24.0049 91.526 24.4427 90.8461 24.4427C90.696 24.4414 90.5462 24.4275 90.3985 24.4011C90.2407 24.3742 90.1098 24.3461 90.0059 24.3179L89.7271 25.4382Z"
    fill="white" />
  <path fill-rule="evenodd" clip-rule="evenodd"
    d="M20.4005 4.99854H11.7174C7.62777 4.99854 6.1333 6.49423 6.1333 10.5826V19.2657C6.1333 23.3541 7.62777 24.8498 11.7174 24.8498H20.4005C24.4888 24.8498 25.987 23.3541 25.987 19.2657V10.5826C25.9833 6.49423 24.4888 4.99854 20.4005 4.99854Z"
    fill="#C8102E" />
  <path
    d="M10.0667 14.9243H10.5938V17.5195H10.0667V16.4653H8.87793V17.5195H8.35205V14.9243H8.87793V15.9712H10.0667V14.9243ZM13.0336 16.4102C13.0336 16.8322 12.8232 17.0572 12.4429 17.0572C12.0625 17.0572 11.8497 16.826 11.8497 16.3919V14.9243H11.3239V16.409C11.3239 17.1428 11.7287 17.5574 12.4368 17.5574C13.1449 17.5574 13.5594 17.1306 13.5594 16.387V14.9194H13.0336V16.4102ZM19.1178 16.7086L18.5296 14.9243H18.0991L17.5096 16.7086L16.9336 14.9255H16.3723L17.2773 17.5195H17.7126L18.3033 15.8159L18.8928 17.5195H19.3331L20.2356 14.9255H19.6902L19.1178 16.7086ZM21.1822 16.4029H22.1398V15.9308H21.1822V15.3988H22.5727V14.9268H20.6624V17.5182H22.6192V17.045H21.1822V16.4029ZM23.2502 17.5158H23.77V14.9243H23.2502V17.5158ZM14.6002 16.9777L14.3654 17.5182H13.8273L14.9708 14.9243H15.4355L16.5741 17.5182H16.0225L15.7889 16.9777H14.6002ZM14.7959 16.5105H15.5884L15.1884 15.5811L14.7959 16.5105Z"
    fill="white" />
  <path
    d="M16.0603 11.6209C15.1846 11.6209 14.3447 11.273 13.7254 10.6537C13.1062 10.0345 12.7583 9.1946 12.7583 8.31885H13.2255C13.2176 8.69632 13.2852 9.07156 13.4243 9.42259C13.5633 9.77361 13.771 10.0934 14.0352 10.3631C14.2994 10.6328 14.6147 10.8471 14.9628 10.9934C15.3108 11.1397 15.6846 11.215 16.0622 11.215C16.4397 11.215 16.8135 11.1397 17.1615 10.9934C17.5096 10.8471 17.8249 10.6328 18.0891 10.3631C18.3533 10.0934 18.561 9.77361 18.7001 9.42259C18.8391 9.07156 18.9067 8.69632 18.8988 8.31885H19.366C19.366 8.75278 19.2805 9.18246 19.1143 9.58332C18.9481 9.98418 18.7046 10.3484 18.3976 10.655C18.0906 10.9617 17.7261 11.2048 17.3251 11.3706C16.924 11.5363 16.4943 11.6213 16.0603 11.6209V11.6209Z"
    fill="white" />
  <path
    d="M56.2899 10.6009V8.15501C56.2899 7.84764 56.3009 7.49543 56.3229 7.09837L54.0909 10.6009H53.2349V6.15302H53.9479V8.69312C53.9479 8.96951 53.9393 9.27158 53.9197 9.59934L56.1211 6.15302H57.0029V10.6009H56.2899Z"
    fill="white" />
  <path
    d="M54.5569 5.76656C54.4075 5.69044 54.2809 5.57609 54.19 5.43513C54.1057 5.30277 54.0506 5.15391 54.0286 4.99854H54.5814C54.6401 5.32629 54.8333 5.48772 55.1586 5.48772C55.4839 5.48772 55.6771 5.32384 55.7395 4.99854H56.2948C56.2723 5.15495 56.2164 5.30469 56.1309 5.43758C56.04 5.57853 55.9134 5.69289 55.764 5.769C55.575 5.85387 55.3701 5.89775 55.1629 5.89775C54.9557 5.89775 54.7508 5.85387 54.5618 5.769L54.5569 5.76656Z"
    fill="white" />
  <path fill-rule="evenodd" clip-rule="evenodd"
    d="M32.6629 10.3819C32.3421 10.2002 32.0824 9.92739 31.9169 9.59793C31.7383 9.23238 31.6498 8.82939 31.6589 8.42265C31.6493 7.99629 31.7438 7.57402 31.934 7.19235C32.1108 6.848 32.3869 6.56467 32.7265 6.37907C33.1026 6.17949 33.5239 6.08049 33.9495 6.09167C34.3532 6.08088 34.7527 6.17663 35.1076 6.36929C35.4252 6.55066 35.6819 6.82221 35.8451 7.14954C36.021 7.51326 36.1082 7.91353 36.0995 8.31748C36.1097 8.7485 36.0144 9.1755 35.8218 9.56124C35.6455 9.90498 35.3709 10.1885 35.033 10.3757C34.6616 10.5735 34.2454 10.672 33.8247 10.6619C33.4195 10.6733 33.0185 10.5766 32.6629 10.3819ZM34.6527 9.84007C34.8694 9.69347 35.0375 9.48572 35.1358 9.24327C35.2463 8.96781 35.3004 8.67294 35.2947 8.37618C35.3009 8.08351 35.2537 7.79216 35.1553 7.51643C35.0683 7.27634 34.911 7.06797 34.704 6.9184C34.4679 6.76199 34.1884 6.68409 33.9054 6.69582C33.6242 6.68713 33.3472 6.7662 33.113 6.92207C32.8939 7.07395 32.7239 7.28646 32.6238 7.53355C32.5135 7.79927 32.4594 8.08489 32.4648 8.37251C32.4594 8.66478 32.51 8.95539 32.614 9.22859C32.7082 9.47086 32.8715 9.6801 33.0836 9.83029C33.3158 9.98332 33.5896 10.0606 33.8675 10.0516C34.1446 10.0619 34.4183 9.98816 34.6527 9.84007Z"
    fill="white" />
  <path
    d="M37.6566 6.79489H36.2783L36.3456 6.15283H39.8029L39.732 6.79489H38.4246V10.6008H37.6566V6.79489Z"
    fill="white" />
  <path
    d="M43.0744 10.6013H43.9403L42.2856 8.1774L43.105 7.01069C43.1565 6.9301 43.2209 6.8586 43.2958 6.79911C43.3637 6.75253 43.4446 6.72857 43.5269 6.73063C43.6111 6.73188 43.6942 6.74976 43.7715 6.78322L43.933 6.17785C43.7865 6.11904 43.6297 6.08994 43.4719 6.09224C43.2902 6.08665 43.1108 6.13426 42.9558 6.22921C42.794 6.34567 42.6561 6.49225 42.5498 6.66092L41.6277 7.98784H41.2253V6.15339H40.4585V10.6013H41.2253V8.64457H41.7512L43.0744 10.6013Z"
    fill="white" />
  <path fill-rule="evenodd" clip-rule="evenodd"
    d="M44.5274 6.15283H45.7246C46.288 6.15283 46.7189 6.26779 47.0173 6.49771C47.3157 6.72763 47.4653 7.05905 47.4661 7.49198C47.4713 7.76344 47.401 8.031 47.2631 8.2649C47.1291 8.48457 46.9341 8.66049 46.7018 8.77121C46.4439 8.89302 46.1614 8.9537 45.8763 8.94854C45.6803 8.94585 45.485 8.92496 45.2929 8.88617V10.5983H44.5249L44.5274 6.15283ZM46.4523 8.13893C46.5361 8.05804 46.6013 7.95997 46.6435 7.85145C46.6858 7.74293 46.704 7.62655 46.6969 7.51033C46.6969 7.23638 46.6137 7.03826 46.4523 6.91841C46.2325 6.78322 45.9761 6.71956 45.7185 6.73619H45.3015V8.31504C45.4473 8.34118 45.5949 8.35672 45.743 8.36151C45.9988 8.37788 46.2517 8.29855 46.4523 8.13893Z"
    fill="white" />
  <path fill-rule="evenodd" clip-rule="evenodd"
    d="M48.1972 9.59791C48.3623 9.92763 48.622 10.2006 48.9432 10.3818C49.2978 10.5756 49.6974 10.6718 50.1013 10.6607C50.522 10.6708 50.9382 10.5722 51.3096 10.3745C51.6487 10.1882 51.9246 9.90504 52.1021 9.56122C52.2947 9.17549 52.39 8.74849 52.3797 8.31746C52.3881 7.91341 52.3005 7.51314 52.1241 7.14953C51.9613 6.82155 51.704 6.5498 51.3854 6.36927C51.0309 6.17666 50.6318 6.08091 50.2285 6.09166C49.8029 6.08058 49.3817 6.17958 49.0055 6.37906C48.6659 6.56466 48.3898 6.84799 48.2131 7.19233C48.0238 7.5743 47.9298 7.99643 47.9391 8.42264C47.9301 8.82938 48.0186 9.23236 48.1972 9.59791ZM51.4209 9.2408C51.3216 9.48505 51.1511 9.69383 50.9317 9.84006C50.6972 9.98794 50.4236 10.0617 50.1466 10.0516C49.869 10.0609 49.5954 9.98358 49.3639 9.83027C49.1511 9.68078 48.9876 9.47132 48.8942 9.22857C48.7886 8.9557 48.7363 8.66509 48.7402 8.3725C48.7365 8.08467 48.7919 7.79916 48.9028 7.53354C49.0034 7.28677 49.1733 7.0744 49.392 6.92205C49.6259 6.76636 49.9024 6.68729 50.1833 6.6958C50.4663 6.68357 50.7459 6.76151 50.9819 6.91839C51.1889 7.06795 51.3461 7.27632 51.4331 7.51642C51.5319 7.79082 51.58 8.0809 51.575 8.3725C51.5824 8.66933 51.53 8.96462 51.4209 9.2408Z"
    fill="white" />
  <path
    d="M57.6582 6.79489H59.0316V10.6008H59.7996V6.79489H61.1155L61.1865 6.15283H57.7255L57.6582 6.79489Z"
    fill="white" />
  <path
    d="M61.8325 6.15283H64.4521L64.3849 6.78266H62.6005V8.00563H64.2772V8.59754H62.6005V9.96238H64.4741L64.4093 10.602H61.8325V6.15283Z"
    fill="white" />
  <path fill-rule="evenodd" clip-rule="evenodd"
    d="M70.2024 8.78711C70.1129 8.62895 69.9839 8.49666 69.8281 8.40309C69.6625 8.30292 69.4781 8.23759 69.2864 8.21109C69.5159 8.1481 69.7215 8.01826 69.8771 7.83808C70.0307 7.65254 70.1112 7.41722 70.1033 7.17646C70.1093 7.03225 70.0803 6.88874 70.0187 6.75818C69.9572 6.62763 69.8649 6.51392 69.7499 6.42678C69.5138 6.24455 69.1616 6.15283 68.6908 6.15283H67.3027V10.6008H68.7544C69.0477 10.6076 69.3392 10.5535 69.6105 10.4418C69.8308 10.351 70.0196 10.1975 70.1535 10.0003C70.2789 9.80456 70.3436 9.57603 70.3393 9.34356C70.3442 9.14917 70.2969 8.95702 70.2024 8.78711ZM68.533 7.97139H68.0536V6.72151H68.5636C68.7638 6.70925 68.9633 6.75603 69.1372 6.85604C69.2022 6.90156 69.2545 6.96303 69.289 7.03455C69.3235 7.10608 69.339 7.18526 69.3341 7.26451C69.3358 7.38962 69.3018 7.51263 69.2362 7.61917C69.1684 7.72944 69.0709 7.81843 68.955 7.87599C68.8242 7.94185 68.6794 7.97461 68.533 7.97139ZM69.5146 9.58667C69.4748 9.68238 69.4154 9.7687 69.3402 9.84008C69.1836 9.96809 68.9472 10.0341 68.6309 10.0382H68.0536V8.54618H68.5673C68.831 8.52886 69.0933 8.59658 69.3157 8.73941C69.394 8.80738 69.4572 8.89097 69.5013 8.98482C69.5453 9.07866 69.5693 9.18068 69.5716 9.28433C69.5739 9.38798 69.5545 9.49096 69.5146 9.58667Z"
    fill="white" />
</svg>