<svg xmlns="http://www.w3.org/2000/svg" width="104" height="30" viewBox="0 0 104 30" fill="none">
  <path
    d="M104 26.993C104 28.6545 102.661 30.0002 101.005 30.0002H2.99872C1.34353 30.0002 0 28.6545 0 26.993V3.01139C0 1.35075 1.34353 0.000244141 2.99872 0.000244141H101.004C102.661 0.000244141 103.999 1.35075 103.999 3.01139L104 26.993Z"
    fill="black" />
  <path
    d="M22.6326 14.2719C22.6102 11.8547 24.6656 10.6787 24.7596 10.6239C23.5955 8.97168 21.7913 8.74593 21.1573 8.72793C19.642 8.57268 18.1721 9.61068 17.4002 9.61068C16.6129 9.61068 15.4242 8.74293 14.1431 8.76843C12.4945 8.79318 10.9522 9.72243 10.1063 11.1654C8.36068 14.1077 9.6626 18.4314 11.3351 20.8097C12.1717 21.9744 13.1493 23.2749 14.4289 23.2292C15.6807 23.1789 16.1484 22.4522 17.659 22.4522C19.1559 22.4522 19.595 23.2292 20.9 23.1999C22.2435 23.1789 23.0894 22.0299 23.8967 20.8547C24.8635 19.5197 25.2518 18.2049 25.2672 18.1374C25.2356 18.1269 22.658 17.1692 22.6326 14.2719Z"
    fill="white" />
  <path
    d="M20.1674 7.16343C20.8407 6.34368 21.3014 5.22843 21.1735 4.09668C20.199 4.13868 18.9802 4.75293 18.2784 5.55468C17.6575 6.26118 17.1028 7.41918 17.2461 8.50818C18.3408 8.58768 19.4648 7.97043 20.1674 7.16343Z"
    fill="white" />
  <path
    d="M40.7493 23.0621H38.9998L38.0415 20.1303H34.7104L33.7975 23.0621H32.0942L35.3945 13.0811H37.4329L40.7493 23.0621ZM37.7526 18.9003L36.8859 16.2941C36.7943 16.0278 36.6225 15.4008 36.369 14.4138H36.3382C36.2373 14.8383 36.0747 15.4653 35.8513 16.2941L35.0001 18.9003H37.7526Z"
    fill="white" />
  <path
    d="M49.2362 19.375C49.2362 20.599 48.8964 21.5665 48.217 22.2768C47.6084 22.909 46.8527 23.2248 45.9505 23.2248C44.9768 23.2248 44.2773 22.8843 43.8513 22.2033H43.8205V25.9945H42.178V18.2343C42.178 17.4648 42.1572 16.675 42.1172 15.865H43.5616L43.6533 17.0058H43.6841C44.2319 16.1463 45.0631 15.7173 46.1786 15.7173C47.0506 15.7173 47.7786 16.0525 48.361 16.7238C48.945 17.3958 49.2362 18.2793 49.2362 19.375ZM47.5629 19.4335C47.5629 18.733 47.4012 18.1555 47.0761 17.701C46.7209 17.227 46.2441 16.99 45.6463 16.99C45.241 16.99 44.8728 17.122 44.5439 17.3823C44.2141 17.6448 43.9984 17.9875 43.8975 18.412C43.8467 18.61 43.8212 18.772 43.8212 18.8995V20.0995C43.8212 20.623 43.9861 21.0648 44.3158 21.4255C44.6455 21.7863 45.0739 21.9663 45.6008 21.9663C46.2194 21.9663 46.7009 21.7338 47.0452 21.2703C47.3904 20.806 47.5629 20.194 47.5629 19.4335Z"
    fill="white" />
  <path
    d="M57.7393 19.375C57.7393 20.599 57.3996 21.5665 56.7193 22.2768C56.1115 22.909 55.3558 23.2248 54.4537 23.2248C53.4799 23.2248 52.7804 22.8843 52.3552 22.2033H52.3244V25.9945H50.682V18.2343C50.682 17.4648 50.6612 16.675 50.6211 15.865H52.0655L52.1572 17.0058H52.188C52.735 16.1463 53.5662 15.7173 54.6825 15.7173C55.5538 15.7173 56.2818 16.0525 56.8657 16.7238C57.4473 17.3958 57.7393 18.2793 57.7393 19.375ZM56.0661 19.4335C56.0661 18.733 55.9035 18.1555 55.5784 17.701C55.2233 17.227 54.748 16.99 54.1494 16.99C53.7434 16.99 53.3759 17.122 53.0462 17.3823C52.7165 17.6448 52.5016 17.9875 52.4006 18.412C52.3506 18.61 52.3244 18.772 52.3244 18.8995V20.0995C52.3244 20.623 52.4892 21.0648 52.8174 21.4255C53.1471 21.7855 53.5755 21.9663 54.1039 21.9663C54.7225 21.9663 55.204 21.7338 55.5484 21.2703C55.8935 20.806 56.0661 20.194 56.0661 19.4335Z"
    fill="white" />
  <path
    d="M67.2454 20.2631C67.2454 21.1121 66.9427 21.8028 66.3349 22.3361C65.6669 22.9188 64.7371 23.2098 63.5423 23.2098C62.4391 23.2098 61.5547 23.0028 60.8853 22.5881L61.2658 21.2553C61.9869 21.6798 62.7781 21.8928 63.6401 21.8928C64.2587 21.8928 64.7402 21.7563 65.0861 21.4848C65.4304 21.2133 65.6022 20.8488 65.6022 20.3943C65.6022 19.9893 65.4605 19.6481 65.1762 19.3713C64.8935 19.0946 64.4213 18.8373 63.7618 18.5996C61.9669 17.9478 61.0701 16.9931 61.0701 15.7376C61.0701 14.9171 61.3845 14.2443 62.0138 13.7208C62.6409 13.1966 63.4775 12.9348 64.5237 12.9348C65.4566 12.9348 66.2316 13.0931 66.8502 13.4088L66.4396 14.7123C65.8618 14.4063 65.2086 14.2533 64.4775 14.2533C63.8997 14.2533 63.4483 14.3921 63.1247 14.6681C62.8512 14.9148 62.7141 15.2156 62.7141 15.5718C62.7141 15.9663 62.8705 16.2926 63.1848 16.5491C63.4583 16.7861 63.9552 17.0426 64.6762 17.3193C65.5583 17.6651 66.2062 18.0693 66.623 18.5328C67.0382 18.9948 67.2454 19.5731 67.2454 20.2631Z"
    fill="white" />
  <path
    d="M72.6759 17.065H70.8655V20.5593C70.8655 21.448 71.1844 21.892 71.8238 21.892C72.1174 21.892 72.3608 21.8673 72.5534 21.8178L72.5988 23.032C72.2753 23.1498 71.8493 23.209 71.3216 23.209C70.6729 23.209 70.166 23.0163 69.8001 22.6315C69.4357 22.246 69.2523 21.5995 69.2523 20.6913V17.0635H68.1738V15.8635H69.2523V14.5458L70.8655 14.0718V15.8635H72.6759V17.065Z"
    fill="white" />
  <path
    d="M80.8437 19.4043C80.8437 20.5105 80.5186 21.4188 79.87 22.129C79.1898 22.8603 78.2869 23.2248 77.1614 23.2248C76.0767 23.2248 75.2131 22.8745 74.5691 22.174C73.925 21.4735 73.603 20.5893 73.603 19.5235C73.603 18.4083 73.9343 17.4948 74.5991 16.7845C75.2624 16.0735 76.1576 15.718 77.2831 15.718C78.3678 15.718 79.2406 16.0683 79.8993 16.7695C80.5294 17.4498 80.8437 18.328 80.8437 19.4043ZM79.1397 19.456C79.1397 18.7923 78.9941 18.223 78.699 17.7483C78.3547 17.1738 77.8624 16.8873 77.2245 16.8873C76.5643 16.8873 76.0628 17.1745 75.7185 17.7483C75.4234 18.2238 75.2778 18.802 75.2778 19.486C75.2778 20.1498 75.4234 20.719 75.7185 21.193C76.0736 21.7675 76.5697 22.054 77.2099 22.054C77.837 22.054 78.3292 21.7615 78.6844 21.178C78.9871 20.6943 79.1397 20.119 79.1397 19.456Z"
    fill="white" />
  <path
    d="M86.1826 17.2713C86.0201 17.242 85.8468 17.227 85.6649 17.227C85.0872 17.227 84.6403 17.4393 84.326 17.8645C84.0526 18.2395 83.9154 18.7135 83.9154 19.2858V23.062H82.2738L82.2892 18.1315C82.2892 17.302 82.2684 16.5468 82.2275 15.8658H83.6581L83.7182 17.2428H83.7637C83.937 16.7695 84.2105 16.3885 84.5849 16.1028C84.9508 15.8455 85.346 15.7173 85.772 15.7173C85.9238 15.7173 86.0609 15.7278 86.1826 15.7465V17.2713Z"
    fill="white" />
  <path
    d="M93.5282 19.1231C93.5282 19.4096 93.5089 19.6511 93.4681 19.8484H88.5408C88.5601 20.5594 88.7981 21.1031 89.2557 21.4781C89.671 21.8134 90.2079 21.9814 90.8674 21.9814C91.5969 21.9814 92.2625 21.8681 92.8611 21.6409L93.1184 22.7509C92.4189 23.0479 91.593 23.1956 90.6401 23.1956C89.4938 23.1956 88.594 22.8671 87.9392 22.2109C87.2859 21.5546 86.9585 20.6734 86.9585 19.5679C86.9585 18.4826 87.2628 17.5789 87.8722 16.8581C88.51 16.0886 89.3721 15.7039 90.4567 15.7039C91.5222 15.7039 92.3287 16.0886 92.8765 16.8581C93.3102 17.4694 93.5282 18.2254 93.5282 19.1231ZM91.962 18.7084C91.9728 18.2344 91.8657 17.8249 91.6431 17.4791C91.3588 17.0344 90.922 16.8124 90.3343 16.8124C89.7973 16.8124 89.3605 17.0291 89.0269 17.4641C88.7535 17.8099 88.5909 18.2246 88.5408 18.7076H91.962V18.7084Z"
    fill="white" />
  <path fill-rule="evenodd" clip-rule="evenodd"
    d="M34.2766 6.60453H34.9682C35.5419 6.60453 35.9432 6.27631 35.9432 5.80212C35.9432 5.33806 35.5844 5.03769 34.976 5.03769C34.3736 5.03769 33.9793 5.33469 33.9325 5.82659H33.1733C33.2262 4.91956 33.9221 4.35425 35.0002 4.35425C36.0186 4.35425 36.7353 4.90944 36.7353 5.70762C36.7353 6.26281 36.3557 6.73362 35.7958 6.85934V6.9184C36.4666 6.98506 36.9459 7.43478 36.9459 8.13594C36.9459 8.99825 36.1087 9.63275 35.015 9.63275C33.89 9.63275 33.1187 9.04044 33.0728 8.14353H33.8432C33.89 8.62447 34.3442 8.93581 35.015 8.93581C35.6849 8.93581 36.1226 8.5865 36.1226 8.09459C36.1226 7.59594 35.7109 7.28797 34.9907 7.28797H34.2766V6.60453Z"
    fill="white" />
  <path fill-rule="evenodd" clip-rule="evenodd"
    d="M40.3313 8.11231V7.79422L39.3779 7.85328C38.8406 7.88872 38.5971 8.06675 38.5971 8.40172C38.5971 8.74344 38.9013 8.94256 39.3207 8.94256C39.9014 8.94256 40.3313 8.58312 40.3313 8.11231ZM37.8223 8.4363C37.8223 7.75287 38.3466 7.35799 39.2739 7.3023L40.3313 7.24324V6.91502C40.3313 6.51424 40.0591 6.28727 39.5322 6.28727C39.1023 6.28727 38.8051 6.44083 38.7184 6.70915H37.9731C38.0519 6.05693 38.6829 5.63843 39.5686 5.63843C40.5471 5.63843 41.0983 6.11262 41.0983 6.91502V9.51124H40.3564V8.97715H40.2957C40.0626 9.35768 39.6362 9.57368 39.1231 9.57368C38.3709 9.57368 37.8223 9.13071 37.8223 8.4363Z"
    fill="white" />
  <path fill-rule="evenodd" clip-rule="evenodd"
    d="M43.1425 6.34304V9.51132H42.3721V5.71191H44.9417V6.34304H43.1425Z" fill="white" />
  <path fill-rule="evenodd" clip-rule="evenodd"
    d="M48.8175 7.60955C48.8175 6.80715 48.4266 6.32199 47.7749 6.32199C47.1258 6.32199 46.7211 6.81727 46.7211 7.61293C46.7211 8.40521 47.1258 8.90049 47.7714 8.90049C48.4266 8.90049 48.8175 8.41533 48.8175 7.60955ZM49.6097 7.60956C49.6097 8.81696 48.9822 9.57381 47.9968 9.57381C47.4413 9.57381 47.0001 9.33671 46.7965 8.93593H46.7349V10.7745H45.9653V5.71196H46.7063V6.33971H46.7644C47.0001 5.90687 47.4586 5.64868 47.9899 5.64868C48.9822 5.64868 49.6097 6.40215 49.6097 7.60956Z"
    fill="white" />
  <path fill-rule="evenodd" clip-rule="evenodd"
    d="M50.6351 10.8723V10.226C50.6966 10.2369 50.8145 10.2403 50.8864 10.2403C51.2522 10.2403 51.4602 10.0935 51.5928 9.71044L51.65 9.52482L50.2373 5.71191H51.0762L52.0547 8.72916H52.1154L53.0904 5.71191H53.9076L52.4525 9.66826C52.1188 10.5922 51.7496 10.8892 50.9549 10.8892C50.8899 10.8892 50.707 10.8824 50.6351 10.8723Z"
    fill="white" />
  <path fill-rule="evenodd" clip-rule="evenodd"
    d="M54.5068 8.43293H55.2738C55.3492 8.7679 55.6716 8.94255 56.1223 8.94255C56.6354 8.94255 56.95 8.72233 56.95 8.38061C56.95 8.01443 56.6674 7.83977 56.1223 7.83977H55.539V7.25674H56.1128C56.5782 7.25674 56.8148 7.08293 56.8148 6.76483C56.8148 6.4864 56.5851 6.27293 56.1128 6.27293C55.682 6.27293 55.3666 6.45096 55.3172 6.75133H54.5744C54.6533 6.07465 55.2305 5.63843 56.1128 5.63843C57.0401 5.63843 57.5705 6.0468 57.5705 6.6889C57.5705 7.06858 57.3235 7.37908 56.9543 7.46599V7.5259C57.4596 7.64065 57.7178 7.9579 57.7178 8.38061C57.7178 9.10286 57.0869 9.58043 56.1223 9.58043C55.2704 9.58043 54.5779 9.20074 54.5068 8.43293Z"
    fill="white" />
  <path fill-rule="evenodd" clip-rule="evenodd"
    d="M58.8271 9.51132V5.71191H59.5907V8.32501H59.6514L61.4497 5.71191H62.2132V9.51132H61.4497V6.88388H61.3925L59.5907 9.51132H58.8271Z"
    fill="white" />
  <path fill-rule="evenodd" clip-rule="evenodd"
    d="M66.4196 6.34304H65.1907V9.51132H64.4194V6.34304H63.1904V5.71191H66.4196V6.34304Z"
    fill="white" />
  <path fill-rule="evenodd" clip-rule="evenodd"
    d="M67.8589 7.26096H69.8289C69.8115 6.66443 69.4389 6.2763 68.8695 6.2763C68.2992 6.2763 67.9014 6.6678 67.8589 7.26096ZM70.5681 8.48524C70.3922 9.16615 69.7682 9.58465 68.8764 9.58465C67.7584 9.58465 67.0737 8.83793 67.0737 7.62293C67.0737 6.40877 67.7723 5.63843 68.8729 5.63843C69.9589 5.63843 70.6149 6.36068 70.6149 7.55374V7.8153H67.8589V7.85749C67.8832 8.52321 68.281 8.94593 68.8981 8.94593C69.3635 8.94593 69.6824 8.7814 69.8254 8.48524H70.5681Z"
    fill="white" />
  <path fill-rule="evenodd" clip-rule="evenodd"
    d="M74.5966 7.82212V8.93587H75.51C75.965 8.93587 76.2094 8.74012 76.2094 8.38069C76.2094 8.00016 75.933 7.82212 75.4138 7.82212H74.5966ZM74.5966 6.28735V7.27116H75.3601C75.8255 7.27116 76.0482 7.09651 76.0482 6.77588C76.0482 6.47888 75.8541 6.28735 75.4459 6.28735H74.5966ZM73.833 5.71191H75.5932C76.3559 5.71191 76.8039 6.08823 76.8039 6.67801C76.8039 7.06191 76.5249 7.41038 76.1444 7.48041V7.53948C76.6497 7.59601 76.979 7.95545 76.979 8.41529C76.979 9.07848 76.4677 9.51132 75.6105 9.51132H73.833V5.71191Z"
    fill="white" />
</svg>