<svg xmlns="http://www.w3.org/2000/svg" width="104" height="30" viewBox="0 0 104 30" fill="none">
  <path
    d="M100.148 30H3.85185C1.7343 30 0 28.3116 0 26.25V3.75C0 1.68844 1.7343 1.58548e-06 3.85185 1.58548e-06H100.148C102.266 1.58548e-06 104 1.68844 104 3.75V26.25C104 28.3116 102.266 30 100.148 30Z"
    fill="black" />
  <path fill-rule="evenodd" clip-rule="evenodd"
    d="M31.9019 9.99855H32.4879V9.0174H36.1108V9.99855H36.6968V8.44937H36.164V4.36987H32.9674V6.69364C33.074 7.31331 32.8608 7.98462 32.3814 8.44937H31.9019V9.99855ZM33.1807 8.39768C33.5003 7.88129 33.6602 7.26162 33.6069 6.64195V4.88621H35.5781V8.39768H33.1807Z"
    fill="white" />
  <path fill-rule="evenodd" clip-rule="evenodd"
    d="M38.382 8.37955C39.3157 9.2874 40.8718 9.2874 41.8055 8.37955C42.2724 7.92562 42.5318 7.32039 42.428 6.71515C42.4799 6.10992 42.2205 5.50469 41.7537 5.05076C40.7681 4.14291 39.2638 4.14291 38.3301 5.05076C37.8633 5.45425 37.6558 6.10992 37.6558 6.71515C37.6558 7.32039 37.9151 7.92562 38.382 8.37955ZM41.3905 8.02647C40.6643 8.68214 39.5231 8.68214 38.8488 8.02647C38.4857 7.67341 38.3301 7.21949 38.3301 6.71513C38.3301 6.21076 38.4857 5.75684 38.8488 5.40379C39.575 4.74812 40.7162 4.74812 41.3905 5.40379C41.7537 5.75684 41.9093 6.21076 41.9093 6.71513C41.9093 7.21949 41.7537 7.67341 41.3905 8.02647Z"
    fill="white" />
  <path
    d="M45.5641 9.06044C45.0036 9.06044 44.4431 8.81356 44.0228 8.41857C43.6024 7.9742 43.3689 7.38171 43.4156 6.73984C43.4156 6.09798 43.6024 5.50548 44.0228 5.06111C44.4431 4.61674 45.0036 4.36987 45.5641 4.36987C46.1713 4.36987 46.7318 4.61674 47.1055 5.11049L46.7318 5.50548C46.4516 5.11049 46.0312 4.91299 45.5641 4.96237C45.1438 4.96237 44.7234 5.11049 44.3964 5.45611C44.0695 5.80173 43.9294 6.2461 43.9294 6.73984C43.9294 7.23359 44.0695 7.67795 44.3964 8.02357C44.7234 8.36919 45.1438 8.51732 45.5641 8.51732C46.0779 8.51732 46.545 8.27045 46.872 7.87545L47.2456 8.27045C47.0588 8.51732 46.8253 8.71482 46.545 8.86294C46.2181 9.01106 45.8911 9.06044 45.5641 9.06044Z"
    fill="white" />
  <path d="M49.9215 9.06044H49.3647V4.94316H48.2046V4.36987H51.0816V4.94316H49.9215V9.06044Z"
    fill="white" />
  <path
    d="M55.8765 4.36987L54.0651 8.24469C53.9052 8.70355 53.479 9.06044 52.9462 9.06044C52.7864 9.06044 52.6266 9.00945 52.4667 8.95847L52.6266 8.39764C52.7331 8.44862 52.8397 8.49961 52.9462 8.49961C53.0528 8.49961 53.1594 8.49961 53.2659 8.39764C53.3725 8.29567 53.4257 8.24469 53.479 8.09173L53.6388 7.73484L52.0405 4.36987H52.7331L53.9052 7.02106L55.0773 4.36987L55.8765 4.36987Z"
    fill="white" />
  <path d="M56.8354 9.06044V4.36987H59.7124V9.06044H59.1813V4.94316H57.3223V9.06044H56.8354Z"
    fill="white" />
  <path
    d="M60.6714 9.06044V4.36987H61.3385V6.40245H63.8402V4.36987H64.5074V9.06044H63.8402V6.92362H61.3385V9.06044H60.6714Z"
    fill="white" />
  <path fill-rule="evenodd" clip-rule="evenodd"
    d="M66.1429 8.37955C67.0798 9.2874 68.6412 9.2874 69.5781 8.37955C69.9945 7.97606 70.2547 7.32039 70.2547 6.71515C70.3067 6.10992 70.0465 5.50469 69.5781 5.05076C68.5892 4.14291 67.0798 4.14291 66.1429 5.05076C65.6745 5.45425 65.4663 6.10992 65.4663 6.71515C65.4663 7.32039 65.6745 7.92562 66.1429 8.37955ZM69.1099 8.02647C68.3812 8.68214 67.2362 8.68214 66.5595 8.02647C66.1952 7.67341 66.0391 7.21949 66.0391 6.71513C66.0391 6.21076 66.1952 5.75684 66.5595 5.40379C67.2882 4.74812 68.4333 4.74812 69.1099 5.40379C69.4742 5.75684 69.6304 6.21076 69.6304 6.71513C69.6304 7.21949 69.4742 7.67341 69.1099 8.02647Z"
    fill="white" />
  <path fill-rule="evenodd" clip-rule="evenodd"
    d="M75.0562 9.06044V4.36987H76.5654C76.8955 4.36987 77.1785 4.47411 77.4143 4.73469C77.6502 4.94316 77.7916 5.30799 77.7916 5.67281C77.7916 5.88128 77.7445 6.08975 77.6502 6.2461C77.5558 6.40245 77.4143 6.5588 77.2257 6.61092C77.4143 6.66304 77.603 6.81939 77.7445 7.02786C77.886 7.23633 77.9331 7.4448 77.9331 7.70538C77.9331 8.07021 77.7916 8.43503 77.5558 8.6435C77.32 8.90408 76.9899 9.00832 76.6597 9.00832L75.0562 9.06044ZM75.6221 6.4024H76.6125C76.8012 6.4024 76.9426 6.29817 77.0841 6.19393C77.32 5.93334 77.32 5.46429 77.0841 5.2037C76.9426 5.04735 76.8012 4.99523 76.6125 4.99523H75.6221V6.4024ZM76.7068 8.48713H75.6221V6.92361H76.7068C77.0841 6.92361 77.4143 7.28843 77.4143 7.70537C77.4143 7.91384 77.3671 8.07019 77.2256 8.22655C77.0841 8.3829 76.8955 8.48713 76.7068 8.48713Z"
    fill="white" />
  <path
    d="M52.3395 16.3144C50.5353 16.3144 49.0614 17.655 49.0614 19.5047C49.0614 21.3394 50.5353 22.694 52.3395 22.694C54.1476 22.694 55.6216 21.3394 55.6216 19.5047C55.6216 17.655 54.1476 16.3144 52.3395 16.3144ZM52.3395 21.4378C51.3495 21.4378 50.4978 20.64 50.4978 19.5047C50.4978 18.3544 51.3495 17.5706 52.3395 17.5706C53.3295 17.5706 54.1851 18.3544 54.1851 19.5047C54.1851 20.64 53.3295 21.4378 52.3395 21.4378ZM45.1869 16.3144C43.3788 16.3144 41.9087 17.655 41.9087 19.5047C41.9087 21.3394 43.3788 22.694 45.1869 22.694C46.994 22.694 48.4651 21.3394 48.4651 19.5047C48.4651 17.655 46.994 16.3144 45.1869 16.3144ZM45.1869 21.4378C44.1959 21.4378 43.3413 20.64 43.3413 19.5047C43.3413 18.3544 44.1959 17.5706 45.1869 17.5706C46.1769 17.5706 47.0286 18.3544 47.0286 19.5047C47.0286 20.64 46.1769 21.4378 45.1869 21.4378ZM36.6755 17.2922V18.6478H39.9911C39.8942 19.4053 39.6349 19.9622 39.2374 20.3503C38.7534 20.819 37.9997 21.3394 36.6755 21.3394C34.6351 21.3394 33.0373 19.7315 33.0373 17.7394C33.0373 15.7472 34.6351 14.1394 36.6755 14.1394C37.7788 14.1394 38.5815 14.5603 39.174 15.1059L40.1525 14.1506C39.3238 13.3781 38.2215 12.7847 36.6755 12.7847C33.8774 12.7847 31.5259 15.0075 31.5259 17.7394C31.5259 20.4712 33.8774 22.694 36.6755 22.694C38.1879 22.694 39.3238 22.2103 40.2168 21.3028C41.1319 20.4094 41.4171 19.1531 41.4171 18.1387C41.4171 17.8237 41.3902 17.534 41.3422 17.2922H36.6755ZM71.4795 18.3431C71.2097 17.6297 70.3772 16.3144 68.6815 16.3144C67.0011 16.3144 65.602 17.6072 65.602 19.5047C65.602 21.2915 66.9867 22.694 68.8428 22.694C70.3436 22.694 71.2097 21.8006 71.5659 21.2803L70.4521 20.5556C70.0805 21.0862 69.5745 21.4378 68.8428 21.4378C68.1159 21.4378 67.5945 21.1125 67.2603 20.4712L71.6303 18.7059L71.4795 18.3431ZM67.0241 19.4053C66.9867 18.1753 68.0026 17.5453 68.7304 17.5453C69.3008 17.5453 69.7847 17.8237 69.9461 18.2222L67.0241 19.4053ZM63.4723 22.5H64.9088V13.125H63.4723V22.5ZM61.1197 17.025H61.0717C60.7491 16.6519 60.1336 16.3144 59.3539 16.3144C57.7177 16.3144 56.2217 17.7169 56.2217 19.515C56.2217 21.3028 57.7177 22.694 59.3539 22.694C60.1336 22.694 60.7491 22.3537 61.0717 21.9694H61.1197V22.4269C61.1197 23.6465 60.4524 24.3019 59.376 24.3019C58.4984 24.3019 57.9539 23.6831 57.7292 23.1628L56.48 23.6719C56.8401 24.5175 57.7936 25.5581 59.376 25.5581C61.0602 25.5581 62.4813 24.5906 62.4813 22.2365V16.5084H61.1197V17.025ZM59.4768 21.4378C58.4868 21.4378 57.6582 20.6287 57.6582 19.515C57.6582 18.3909 58.4868 17.5706 59.4768 17.5706C60.4524 17.5706 61.2215 18.3909 61.2215 19.515C61.2215 20.6287 60.4524 21.4378 59.4768 21.4378ZM78.2049 13.125H74.7692V22.5H76.2019V18.9478H78.2049C79.796 18.9478 81.3563 17.8237 81.3563 16.0359C81.3563 14.249 79.7921 13.125 78.2049 13.125ZM78.2423 17.6437H76.2019V14.429H78.2423C79.312 14.429 79.9227 15.2962 79.9227 16.0359C79.9227 16.7615 79.312 17.6437 78.2423 17.6437ZM87.0984 16.2965C86.0633 16.2965 84.9869 16.7428 84.5442 17.7319L85.8156 18.2522C86.0892 17.7319 86.5924 17.5631 87.1243 17.5631C87.8675 17.5631 88.6213 17.999 88.6328 18.7687V18.8672C88.3736 18.7209 87.8186 18.5044 87.1359 18.5044C85.7666 18.5044 84.3714 19.2403 84.3714 20.6137C84.3714 21.87 85.4929 22.679 86.7537 22.679C87.7177 22.679 88.2497 22.2544 88.5839 21.7603H88.6328V22.485H90.0165V18.8887C90.0165 17.2265 88.7452 16.2965 87.0984 16.2965ZM86.9256 21.434C86.457 21.434 85.804 21.2072 85.804 20.64C85.804 19.9144 86.6183 19.6359 87.3231 19.6359C87.954 19.6359 88.2497 19.7719 88.6328 19.9509C88.5205 20.819 87.7552 21.434 86.9256 21.434ZM95.0576 16.5019L93.4109 20.5659H93.3619L91.6594 16.5019H90.1144L92.6725 22.1812L91.2129 25.3415H92.7099L96.6516 16.5019H95.0576ZM82.1437 22.5H83.5802V13.125H82.1437V22.5Z"
    fill="white" />
  <path
    d="M8.01591 5.65414C7.79026 5.88476 7.65967 6.24383 7.65967 6.70883V23.2951C7.65967 23.7601 7.79026 24.1191 8.01591 24.3498L8.0716 24.4004L17.5912 15.1098V14.8904L8.0716 5.59976L8.01591 5.65414Z"
    fill="url(#paint0_linear_44522_596)" />
  <path
    d="M20.761 18.2083L17.5913 15.1098V14.8904L20.7648 11.792L20.8359 11.8323L24.5942 13.9201C25.6667 14.5126 25.6667 15.4876 24.5942 16.0839L20.8359 18.1679L20.761 18.2083Z"
    fill="url(#paint1_linear_44522_596)" />
  <path
    d="M20.836 18.1679L17.5914 15L8.01611 24.3497C8.37235 24.7154 8.95328 24.7594 9.61391 24.3938L20.836 18.1679Z"
    fill="url(#paint2_linear_44522_596)" />
  <path
    d="M20.836 11.8322L9.61391 5.60625C8.95328 5.24438 8.37235 5.28844 8.01611 5.65406L17.5914 15L20.836 11.8322Z"
    fill="url(#paint3_linear_44522_596)" />
  <defs>
    <linearGradient id="paint0_linear_44522_596" x1="16.746" y1="23.4678" x2="4.16277" y2="10.5797"
      gradientUnits="userSpaceOnUse">
      <stop stop-color="#00A0FF" />
      <stop offset="0.0066" stop-color="#00A1FF" />
      <stop offset="0.2601" stop-color="#00BEFF" />
      <stop offset="0.5122" stop-color="#00D2FF" />
      <stop offset="0.7604" stop-color="#00DFFF" />
      <stop offset="1" stop-color="#00E3FF" />
    </linearGradient>
    <linearGradient id="paint1_linear_44522_596" x1="25.9908" y1="14.9991" x2="7.40341" y2="14.9991"
      gradientUnits="userSpaceOnUse">
      <stop stop-color="#FFE000" />
      <stop offset="0.4087" stop-color="#FFBD00" />
      <stop offset="0.7754" stop-color="#FFA500" />
      <stop offset="1" stop-color="#FF9C00" />
    </linearGradient>
    <linearGradient id="paint2_linear_44522_596" x1="19.0717" y1="13.278" x2="2.00783" y2="-4.19934"
      gradientUnits="userSpaceOnUse">
      <stop stop-color="#FF3A44" />
      <stop offset="1" stop-color="#C31162" />
    </linearGradient>
    <linearGradient id="paint3_linear_44522_596" x1="5.60582" y1="29.8679" x2="13.2256" y2="22.0635"
      gradientUnits="userSpaceOnUse">
      <stop stop-color="#32A071" />
      <stop offset="0.0685" stop-color="#2DA771" />
      <stop offset="0.4762" stop-color="#15CF74" />
      <stop offset="0.8009" stop-color="#06E775" />
      <stop offset="1" stop-color="#00F076" />
    </linearGradient>
  </defs>
</svg>