<svg xmlns="http://www.w3.org/2000/svg" width="28" height="28" fill="none">
  <rect width="28" height="28" rx="6" fill="url(#vkGrad)" />
  <path fill-rule="evenodd" clip-rule="evenodd"
    d="M21.584 19.991h-2.192c-.712 0-.805-.58-2.11-1.998-1.1-1.198-1.571-1.298-1.849-1.298-.277 0-.433.205-.433.664v1.825c0 .539-.242.767-1.398.767-1.896 0-4.005-1.298-5.605-3.696C5.61 12.69 5 10.033 5 9.453c.03-.274.254-.473.509-.45H7.45c.5 0 .694.16.879.76.925 2.896 2.479 5.444 3.144 5.444.25 0 .526-.27.526-.86v-2.986c0-1.428-.979-1.508-.979-2.028a.38.38 0 0 1 .13-.254.324.324 0 0 1 .259-.075h3.107c.417 0 .472.16.472.719v3.995c0 .46.083.63.268.63s.435-.15.842-.66c.923-1.225 1.776-2.76 2.401-4.188.102-.341.371-.496.715-.496h1.984c.389 0 .529.196.455.606-.222 1.149-2.53 4.847-2.53 4.847-.204.36-.296.56 0 .9.296.339.86.938 1.257 1.528.98 1.148 1.619 2.117 1.619 2.666 0 .55-.203.44-.416.44Z"
    fill="#fff" />

  <defs>
    <linearGradient id="vkGrad" x1="9.741" y1="-4.499" x2="-4.509" y2="18.55"
      gradientUnits="userSpaceOnUse">
      <stop stop-color="#4598DF" />
      <stop offset="1" stop-color="#3E6EA4" />
    </linearGradient>
  </defs>
</svg>