<svg xmlns="http://www.w3.org/2000/svg" width="24" height="24" fill="none" viewBox="0 0 24 24">
  <g clip-path="url(#a)">
    <path
      d="M14.32 6.01H20a2 2 0 0 1 2 2v2a2 2 0 0 1-1.165 1.818l-.67 7.363a2 2 0 0 1-1.991 1.819H5.826a2 2 0 0 1-1.991-1.82l-.67-7.362A2 2 0 0 1 2 10.01v-2a2 2 0 0 1 2-2h4.002c.683 0 1.02.556 1.02 1.002a.996.996 0 0 1-1.02.998H4v2h16v-2h-6a1 1 0 0 1-.663-.23L8.398 3.701a.909.909 0 0 1-.064-1.344l.064-.064a1 1 0 0 1 1.344-.064l4.578 3.78Zm4.49 6H5.19l.636 7h12.348l.636-7ZM8 14.01a1 1 0 0 1 1 1v1a1 1 0 1 1-2 0v-1a1 1 0 0 1 1-1Zm4 0a1 1 0 0 1 1 1v1a1 1 0 1 1-2 0v-1a1 1 0 0 1 1-1Zm4 0a1 1 0 0 1 1 1v1a1 1 0 1 1-2 0v-1a1 1 0 0 1 1-1Z"
      fill="#979797" />
  </g>
  <defs>
    <clipPath id="a">
      <path fill="#fff" transform="translate(2 2)" d="M0 0h20v19H0z" />
    </clipPath>
  </defs>
</svg>