<svg xmlns="http://www.w3.org/2000/svg" fill="none" viewBox="0 0 98 48">
  <path
    d="M8.631 16.787c-5.733 8.458.666 12.388 3.607 11.352 0 0-8.086 9.328-11.359 15.097-2.028 3.579-.127 3.09 1.49 1.81 9.173-7.237 17.709-17.19 19.277-19.097 0 0-4.205 14.021-1.49 15.752 1 .636 4.783-5.31 9.173-17.16 1.872-5.046 3.832-10.326 4.665-14.97.45-2.533-4.489-1.467-7.262-.841-5.792-.088-14.72 3.09-18.1 8.057Zm13.789 5.798s-5.998 4.028-7.497-.049c-1.637-4.449 5.262-11.01 11.31-11.567-1.01 2.689-3.813 11.616-3.813 11.616Zm17.063-3.735s-.451-.401-2.862.039c-1.882.342-3.107.528-4.087 3.149-.93 2.464-5.4 16.886-6.272 21.902-.245 1.408-.147 1.985.304 2.054.804.127 2.47-1.74 3.557-3.452 2.764-4.36 4.058-8.008 4.058-8.008s13.25-1.29 14.65-12.31c.893-6.943-7.545-4.577-9.349-3.374Zm3.831 4.253c-.196 3.247-3.89 8.556-8.31 8.889l4.332-10.825c.147-.381 4.214-1.946 3.978 1.936Zm14.416.655s2.87-8.301 4.018-8.741c.98-.381 3.479-1.027 5.017-1.183.853-.088 1.833-.45 1.264.606-.656 1.232-2.861 3.784-7.252 13.894-1.764 4.068-2.518 5.359-3.283 4.655-.637-.587-.647-5.114-.284-6.894 0 0-2.724 2.318-5.008 1.829-2.009-.43-2.9-1.662-2.283-5.192.578-3.305 1.91-5.681 2.656-5.975.676-.264 2.616-.772 4.37-.987.696-.088.716.362.54.733-1.412 2.836-2.147 4.752-2.392 6.053-.558 2.796 1.323 2.298 2.636 1.202Zm20.953.176c-.49.274-6.39 3.54-7.566 2.005-.264-.342-.392-.841-.411-1.438.93-.273 2.685-.87 4.831-1.916 6.978-3.393 9.32-11.02 2.225-10.746-2.215.088-8.134 2.132-10.937 7.578-3.538 6.864 1.205 9.934 4.684 9.534 3.4-.392 6.43-2.416 7.693-4.058 1.03-1.34.167-1.34-.52-.959Zm-1.764-10.11c.755.45-.186 6.737-5.978 8.712.46-1.946 1.538-4.292 2.93-6.248 1.705-2.386 2.695-2.68 3.048-2.464Zm7.369 7.725c-1.421.195-2.245.44-2.842 2.034-.657 1.74.245 2.982 2.087 2.532.98-.244 2.332-1.535 2.744-2.66.363-1.007-.245-2.15-1.99-1.906Zm-.028-3.119c-.187 1.046-.02 2.033.509 2.082.43.04.94-.254 1.47-1.193C92.01 8.984 97.176 3.811 97.842 2.804c.666-1.017-.823-.948-3.548-.46-3.479.626-4.243.695-5.596 3.843-2.204 5.163-4.194 10.922-4.439 12.242ZM37.443 44.41s2.764.9 4.88 1.35c1.941.41 2.676.019 4.234-.636 2.637-1.115 9.732-4.342 25.461-8.537 12.838-3.422 15.484-3.227 15.328-3.96-.167-.743-5.116-.772-16.837 1.144-11.72 1.917-39.044 8.752-33.066 10.639Z" />
</svg>